<svg width="62" height="20" fill="none" xmlns="http://www.w3.org/2000/svg"><g clip-path="url(#clip0_275_3)"><path d="M4 0h54a4 4 0 014 4v12a4 4 0 01-4 4H4a4 4 0 01-4-4V4a4 4 0 014-4z" fill="#DB372D"/><path d="M8.032 15.224c-.532 0-1.04-.103-1.526-.308a3.813 3.813 0 01-1.288-.938c-.364-.41-.635-.92-.812-1.526l1.456-.588c.15.541.41.994.784 1.358.373.364.84.546 1.4.546.317 0 .611-.056.882-.168.28-.112.504-.275.672-.49.168-.224.252-.495.252-.812 0-.299-.07-.55-.21-.756-.14-.215-.364-.406-.672-.574a7.18 7.18 0 00-1.176-.518l-.63-.224a7.144 7.144 0 01-.826-.378 4.073 4.073 0 01-.784-.546 2.615 2.615 0 01-.56-.784 2.416 2.416 0 01-.21-1.036c0-.504.13-.961.392-1.372.27-.41.64-.737 1.106-.98.476-.252 1.027-.378 1.652-.378.644 0 1.18.117 1.61.35.439.224.78.495 1.022.812.252.317.425.62.518.91l-1.386.588a1.646 1.646 0 00-.308-.574 1.59 1.59 0 00-.574-.462c-.233-.13-.523-.196-.868-.196a2.01 2.01 0 00-.826.168 1.53 1.53 0 00-.588.462c-.15.187-.224.406-.224.658 0 .364.15.663.448.896.299.224.733.43 1.302.616l.644.224c.327.112.649.247.966.406.317.15.607.345.868.588.261.233.467.523.616.868.159.336.238.737.238 1.204 0 .513-.103.961-.308 1.344a2.633 2.633 0 01-.798.924c-.327.233-.69.406-1.092.518-.392.112-.78.168-1.162.168zm8.055 0c-.7 0-1.325-.163-1.876-.49a3.534 3.534 0 01-1.302-1.344c-.308-.57-.462-1.218-.462-1.946 0-.681.15-1.311.448-1.89a3.576 3.576 0 011.246-1.386c.541-.355 1.162-.532 1.862-.532.737 0 1.363.159 1.876.476.523.317.92.751 1.19 1.302.27.55.406 1.171.406 1.862 0 .103-.005.196-.014.28 0 .084-.005.15-.014.196h-5.516c.037.392.135.733.294 1.022.205.364.476.64.812.826.336.187.7.28 1.092.28.476 0 .873-.107 1.19-.322.327-.224.583-.5.77-.826l1.246.602a3.864 3.864 0 01-1.26 1.372c-.532.345-1.195.518-1.988.518zm-2.072-4.606h3.962a1.644 1.644 0 00-.14-.56 1.754 1.754 0 00-.966-.966 2.02 2.02 0 00-.854-.168c-.41 0-.775.107-1.092.322a2.056 2.056 0 00-.742.868c-.075.159-.13.327-.168.504zm10.126 4.606c-.719 0-1.358-.163-1.918-.49a3.532 3.532 0 01-1.302-1.344c-.308-.579-.462-1.232-.462-1.96s.154-1.377.462-1.946a3.532 3.532 0 011.302-1.344c.56-.336 1.2-.504 1.918-.504.793 0 1.46.177 2.002.532.55.355.942.835 1.176 1.442l-1.372.56c-.168-.383-.41-.667-.728-.854-.308-.196-.677-.294-1.106-.294-.392 0-.752.103-1.078.308a2.157 2.157 0 00-.784.826c-.196.355-.294.78-.294 1.274 0 .485.098.91.294 1.274.196.364.457.644.784.84.326.196.686.294 1.078.294.457 0 .844-.103 1.162-.308.317-.205.564-.495.742-.868l1.344.588a3.409 3.409 0 01-1.218 1.414c-.542.373-1.209.56-2.002.56zm7.024 0c-.877 0-1.54-.261-1.988-.784-.439-.532-.658-1.25-.658-2.156V7.86h1.512v4.214c0 .597.14 1.04.42 1.33.29.29.649.434 1.078.434.392 0 .728-.098 1.008-.294.28-.205.495-.471.644-.798.159-.327.238-.677.238-1.05V7.86h1.498V15h-1.414v-.966h-.084c-.13.224-.313.425-.546.602a2.875 2.875 0 01-.784.42c-.29.112-.597.168-.924.168zM36.669 15V7.86h1.428v1.05h.084c.112-.243.27-.457.476-.644.214-.187.457-.336.728-.448.28-.112.57-.168.868-.168.196 0 .36.014.49.042.14.019.266.051.378.098v1.568a3.752 3.752 0 00-.546-.182 2.192 2.192 0 00-.56-.07 1.62 1.62 0 00-.952.294c-.27.187-.486.439-.644.756a2.345 2.345 0 00-.238 1.064V15h-1.512zm5.523 0V7.86h1.512V15h-1.512zm.756-8.19a1.02 1.02 0 01-.728-.294 1.02 1.02 0 01-.294-.728c0-.29.098-.527.294-.714a1.02 1.02 0 01.728-.294c.29 0 .532.098.728.294a.943.943 0 01.294.714c0 .28-.098.523-.294.728a.989.989 0 01-.728.294zm1.994 2.366V7.86h1.26V5.844H47.7V7.86h1.75v1.316H47.7v3.43c0 .373.075.649.224.826.159.177.397.266.714.266.15 0 .29-.019.42-.056.13-.047.275-.117.434-.21v1.47c-.177.065-.36.117-.546.154a2.787 2.787 0 01-.574.056c-.672 0-1.204-.196-1.596-.588-.383-.392-.574-.924-.574-1.596V9.176h-1.26zm8.325 8.498c-.028.065-.06.13-.098.196a5.25 5.25 0 00-.056.154h-1.61l.196-.434a15.253 15.253 0 00.434-.952c.066-.14.13-.285.196-.434.075-.15.145-.294.21-.434l.532-1.162L50.09 7.86h1.68l2.044 4.872h.07l1.974-4.872h1.666l-3.696 8.512c-.065.159-.14.327-.224.504-.075.177-.145.336-.21.476-.056.15-.098.257-.126.322z" fill="#fff"/></g><defs><clipPath id="clip0_275_3"><path fill="#fff" d="M0 0h62v20H0z"/></clipPath></defs></svg>